<svg width="760" height="420" viewBox="0 0 760 420" xmlns="http://www.w3.org/2000/svg" font-family="Arial, sans-serif"><rect width="760" height="420" fill="#ffffff"/><text x="380" y="26" text-anchor="middle" font-size="18" font-weight="bold" fill="#1e1e1e">CampusConnect — SQLite Schema (5 Tables)</text><rect x="20" y="50" width="190" height="94" rx="8" fill="#e7f5ff" stroke="#1971c2" stroke-width="1.5"/><rect x="20" y="50" width="190" height="30" rx="8" fill="#1971c2"/><rect x="20" y="66" width="190" height="14" fill="#1971c2"/><text x="115.0" y="70" text-anchor="middle" font-size="12" font-weight="bold" fill="#ffffff">students</text><text x="30" y="98" font-size="10" fill="#212529">PK  roll_no (TEXT)</text><text x="30" y="118" font-size="10" fill="#212529">     name (TEXT)</text><text x="30" y="138" font-size="10" fill="#212529">     dept (TEXT)</text><rect x="230" y="50" width="190" height="134" rx="8" fill="#fff9db" stroke="#f08c00" stroke-width="1.5"/><rect x="230" y="50" width="190" height="30" rx="8" fill="#f08c00"/><rect x="230" y="66" width="190" height="14" fill="#f08c00"/><text x="325.0" y="70" text-anchor="middle" font-size="12" font-weight="bold" fill="#ffffff">attendance</text><text x="240" y="98" font-size="10" fill="#212529">PK  id (INTEGER)</text><text x="240" y="118" font-size="10" fill="#212529">FK  roll_no (TEXT)</text><text x="240" y="138" font-size="10" fill="#212529">     subject (TEXT)</text><text x="240" y="158" font-size="10" fill="#212529">     status (TEXT)</text><text x="240" y="178" font-size="10" fill="#212529">     date (TEXT)</text><rect x="440" y="50" width="190" height="114" rx="8" fill="#f3f0ff" stroke="#7048e8" stroke-width="1.5"/><rect x="440" y="50" width="190" height="30" rx="8" fill="#7048e8"/><rect x="440" y="66" width="190" height="14" fill="#7048e8"/><text x="535.0" y="70" text-anchor="middle" font-size="12" font-weight="bold" fill="#ffffff">timetable</text><text x="450" y="98" font-size="10" fill="#212529">PK  id (INTEGER)</text><text x="450" y="118" font-size="10" fill="#212529">     day (TEXT)</text><text x="450" y="138" font-size="10" fill="#212529">     period (INTEGER)</text><text x="450" y="158" font-size="10" fill="#212529">     subject (TEXT)</text><rect x="20" y="230" width="190" height="94" rx="8" fill="#ebfbee" stroke="#2f9e44" stroke-width="1.5"/><rect x="20" y="230" width="190" height="30" rx="8" fill="#2f9e44"/><rect x="20" y="246" width="190" height="14" fill="#2f9e44"/><text x="115.0" y="250" text-anchor="middle" font-size="12" font-weight="bold" fill="#ffffff">announcements</text><text x="30" y="278" font-size="10" fill="#212529">PK  id (INTEGER)</text><text x="30" y="298" font-size="10" fill="#212529">     title (TEXT)</text><text x="30" y="318" font-size="10" fill="#212529">     posted_on (TEXT)</text><rect x="230" y="230" width="190" height="134" rx="8" fill="#fff0f6" stroke="#c2255c" stroke-width="1.5"/><rect x="230" y="230" width="190" height="30" rx="8" fill="#c2255c"/><rect x="230" y="246" width="190" height="14" fill="#c2255c"/><text x="325.0" y="250" text-anchor="middle" font-size="12" font-weight="bold" fill="#ffffff">lost_found</text><text x="240" y="278" font-size="10" fill="#212529">PK  id (INTEGER)</text><text x="240" y="298" font-size="10" fill="#212529">FK  posted_by (TEXT)</text><text x="240" y="318" font-size="10" fill="#212529">     item_name (TEXT)</text><text x="240" y="338" font-size="10" fill="#212529">     status (TEXT)</text><text x="240" y="358" font-size="10" fill="#212529">     photo_path (TEXT)</text><line x1="210" y1="80" x2="230" y2="90" stroke="#495057" stroke-width="1.5" stroke-dasharray="3,3"/><text x="215" y="75" font-size="9" fill="#868e96">1:N</text><line x1="115" y1="130" x2="115" y2="230" stroke="#495057" stroke-width="1.5" stroke-dasharray="3,3"/><text x="120" y="180" font-size="9" fill="#868e96">1:N (roll_no)</text></svg>