<svg width="420" height="640" viewBox="0 0 420 640" xmlns="http://www.w3.org/2000/svg" font-family="Arial, sans-serif"><rect width="420" height="640" fill="#ffffff"/><text x="210" y="26" text-anchor="middle" font-size="18" font-weight="bold" fill="#1e1e1e">Output: activity_post_item.xml</text><g>
<rect x="60" y="50" width="300" height="560" rx="18" fill="#ffffff" stroke="#212529" stroke-width="3"/>
<rect x="74" y="64" width="272" height="18" rx="4" fill="#f1f3f5"/>
<text x="210.0" y="77" text-anchor="middle" font-size="10" fill="#868e96" font-family="Arial">9:41</text>
<text x="210.0" y="40" text-anchor="middle" font-size="13" font-weight="bold" fill="#1e1e1e" font-family="Arial">Post Lost/Found Item</text>
<text x="80" y="75" font-size="11" fill="#495057">Item Name</text><rect x="80" y="81" width="260" height="34" rx="4" fill="#f8f9fa" stroke="#adb5bd"/><text x="90" y="103" font-size="12" fill="#495057">Calculator (Casio fx-991)</text><text x="80" y="131" font-size="11" fill="#495057">Description</text><rect x="80" y="137" width="260" height="50" rx="4" fill="#f8f9fa" stroke="#adb5bd"/><text x="90" y="157" font-size="11" fill="#495057">Found near canteen,</text><text x="90" y="173" font-size="11" fill="#495057">black cover</text><text x="80" y="207" font-size="11" fill="#495057">Category (Spinner)</text><rect x="80" y="213" width="260" height="34" rx="4" fill="#e7f5ff" stroke="#1971c2"/><text x="90" y="235" font-size="12" fill="#1971c2">Electronics ▾</text><text x="80" y="263" font-size="11" fill="#495057">Date Lost/Found (DatePicker)</text><rect x="80" y="269" width="260" height="34" rx="4" fill="#e6fcf5" stroke="#0ca678"/><text x="90" y="291" font-size="12" fill="#0ca678">22 / 07 / 2026 📅</text><rect x="80" y="319" width="16" height="16" rx="3" fill="#2f9e44"/><text x="105" y="332" font-size="12" fill="#495057">Reward offered</text><circle cx="88" cy="357" r="7" fill="none" stroke="#495057" stroke-width="1.5"/><text x="105" y="362" font-size="12" fill="#495057">Lost</text><circle cx="150" cy="357" r="7" fill="#7048e8" stroke="#7048e8" stroke-width="1.5"/><circle cx="150" cy="357" r="3" fill="#ffffff"/><text x="167" y="362" font-size="12" fill="#7048e8" font-weight="bold">Found (selected)</text><rect x="80" y="383" width="90" height="28" rx="14" fill="#2f9e44"/><circle cx="150" cy="397" r="12" fill="#ffffff"/><text x="182" y="401" font-size="12" fill="#495057">Notify via SMS: ON (ToggleButton)</text><rect x="80" y="433" width="260" height="42" rx="6" fill="#1971c2"/><text x="210" y="460" text-anchor="middle" font-size="14" font-weight="bold" fill="#ffffff">SUBMIT</text><rect x="90" y="560" width="240" height="34" rx="17" fill="#333333" opacity="0.92"/><text x="210" y="581" text-anchor="middle" font-size="11" fill="#ffffff">Item posted successfully! (Toast)</text></g></svg>